<svg version="1.1" id="Layer_1" xmlns="http://www.w3.org/2000/svg" xmlns:xlink="http://www.w3.org/1999/xlink" x="0px" y="0px"
	 width="100%" viewBox="0 0 901 901" enable-background="new 0 0 901 901" xml:space="preserve">
<path fill="#FFFFFF" opacity="1.000000" stroke="none" 
	d="
M617.000000,902.000000 
	C411.333344,902.000000 206.166672,902.000000 1.000000,902.000000 
	C1.000000,601.666687 1.000000,301.333344 1.000000,1.000000 
	C301.333344,1.000000 601.666687,1.000000 902.000000,1.000000 
	C902.000000,301.333344 902.000000,601.666687 902.000000,902.000000 
	C807.166687,902.000000 712.333313,902.000000 617.000000,902.000000 
M106.628532,604.835144 
	C106.638000,605.042786 106.623764,605.248718 106.223160,606.396362 
	C106.223160,611.145752 106.223160,615.895142 106.223160,620.660522 
	C335.722321,620.660522 564.589722,620.660522 793.535278,620.660522 
	C793.535278,497.301849 793.535278,374.301483 793.535278,251.377106 
	C564.197693,251.377106 335.329926,251.377106 106.001015,251.377106 
	C106.001015,253.571609 106.000992,255.372589 106.001030,257.173584 
	C106.003464,370.984314 106.002922,484.795044 106.032776,598.605774 
	C106.033295,600.579285 106.400154,602.552673 106.628532,604.835144 
z"/>
<path fill="#CCCCCC" opacity="1.000000" stroke="none" 
	d="
M106.596054,604.526123 
	C106.400154,602.552673 106.033295,600.579285 106.032776,598.605774 
	C106.002922,484.795044 106.003464,370.984314 106.001030,257.173584 
	C106.000992,255.372589 106.001015,253.571609 106.001015,251.377106 
	C335.329926,251.377106 564.197693,251.377106 793.535278,251.377106 
	C793.535278,374.301483 793.535278,497.301849 793.535278,620.660522 
	C564.589722,620.660522 335.722321,620.660522 106.223160,620.660522 
	C106.223160,615.895142 106.223160,611.145752 106.711914,606.067871 
	C123.004250,613.526489 139.020508,619.681824 157.336411,618.194397 
	C183.648987,616.057434 201.786148,597.432434 201.924774,571.088867 
	C202.000198,556.756226 201.952515,542.422913 201.930695,528.089905 
	C201.928299,526.510193 201.730255,524.930664 201.634018,523.514099 
	C195.743759,523.514099 190.487045,523.514099 184.863190,523.514099 
	C184.863190,525.703979 184.863144,527.517090 184.863190,529.330139 
	C184.863510,542.663208 184.896042,555.996460 184.854675,569.329407 
	C184.817184,581.412048 181.419556,591.803101 169.503647,597.253235 
	C161.611816,600.862732 153.062439,602.369019 144.643066,600.374695 
	C134.523865,597.977905 124.687050,594.388977 114.381554,591.209290 
	C112.067673,595.167114 109.331863,599.846619 106.596054,604.526123 
M365.497986,254.996887 
	C348.670929,254.996933 331.843872,254.989838 315.016815,255.000488 
	C308.186646,255.004807 301.342163,254.777679 294.529846,255.139359 
	C285.363831,255.626007 279.031036,264.448395 282.241089,272.071930 
	C284.969757,278.552094 290.383911,280.880981 297.123230,280.873474 
	C319.448151,280.848572 341.773163,280.869537 364.098114,280.874634 
	C366.394684,280.875153 368.245300,280.741302 369.633636,283.648926 
	C388.350861,322.848328 407.311676,361.931305 426.111542,401.091370 
	C428.985199,407.077118 430.257080,413.268677 427.337494,419.848358 
	C422.573425,430.584595 413.575897,435.045380 402.773224,435.941620 
	C386.492340,437.292419 373.516907,431.507843 365.164917,416.715515 
	C360.799316,408.983551 350.509125,406.258118 343.436035,410.711731 
	C338.264435,413.968048 334.450012,420.930817 340.279144,430.848633 
	C360.579376,465.388062 412.066254,474.368774 442.593811,448.350403 
	C445.072754,446.237610 447.120209,443.618561 449.578247,441.012054 
	C454.065186,449.943390 458.360260,458.492798 462.783997,467.298279 
	C483.371552,457.077881 503.377014,447.264801 523.276794,437.241974 
	C560.266357,418.611603 576.082886,377.067352 560.952148,338.611725 
	C547.594971,304.664001 510.713898,283.784698 475.052094,291.200958 
	C464.174927,293.462921 453.872955,298.802368 443.538300,303.266632 
	C434.624634,307.117065 426.038849,311.726501 417.506409,315.903320 
	C416.781616,315.125488 416.479309,314.921265 416.342865,314.637360 
	C409.780518,300.985626 403.265228,287.311188 396.674805,273.673035 
	C388.022308,255.767746 389.265106,254.506516 365.497986,254.996887 
M546.976013,539.529907 
	C545.085083,537.923340 543.365967,536.037048 541.276489,534.753662 
	C521.282349,522.472595 500.381958,518.317505 478.216949,528.551880 
	C467.380219,533.555603 459.102295,541.701050 458.182983,553.812195 
	C456.889099,570.858154 457.409058,588.044128 457.286041,605.171204 
	C457.277893,606.305176 458.143860,608.171021 459.023346,608.472961 
	C467.580475,611.411194 476.094757,614.663513 484.883514,616.687744 
	C494.884521,618.991150 504.941620,619.510803 515.398560,617.349670 
	C527.035706,614.944641 537.152832,610.737427 546.244873,603.005798 
	C563.271729,588.526550 565.217041,556.261475 546.976013,539.529907 
M650.072083,576.539368 
	C653.631042,567.291748 646.486511,551.489197 636.828186,545.107056 
	C627.080261,538.665710 616.447998,536.985657 605.096619,538.034119 
	C593.075317,539.144409 582.779968,543.499573 574.940369,553.086548 
	C565.012085,565.227844 563.421631,578.901367 568.880188,592.936829 
	C574.200928,606.617798 585.432495,613.982666 599.648071,616.968445 
	C609.994385,619.141479 620.351013,620.000061 630.618958,616.861084 
	C636.438477,615.082153 642.181702,612.982666 647.797241,610.639038 
	C650.440491,609.535767 651.876343,607.507690 649.783508,604.273376 
	C648.179382,601.794434 647.108887,598.911560 646.150940,596.089539 
	C645.165527,593.186523 643.998962,592.738953 641.018127,593.963013 
	C634.791931,596.519775 628.452209,599.269470 621.891724,600.435913 
	C611.233704,602.330994 600.758667,600.983765 591.672913,594.277039 
	C590.528931,593.432617 589.972717,591.791809 589.144165,590.520020 
	C590.460449,589.972534 591.729980,589.210571 593.100464,588.911926 
	C603.283142,586.692383 613.490784,584.587708 623.680725,582.401123 
	C632.212158,580.570374 640.730225,578.677429 650.072083,576.539368 
M357.090240,570.406494 
	C348.297394,568.609924 339.462463,566.987488 330.744537,564.880859 
	C328.827087,564.417542 327.325226,562.234253 325.631989,560.843018 
	C327.409973,559.336731 328.994324,556.947327 331.005890,556.506165 
	C335.333221,555.557190 340.141144,554.506226 344.283905,555.483154 
	C353.076385,557.556763 361.546478,560.974426 370.208862,563.646179 
	C371.570343,564.066040 374.057343,564.046936 374.639832,563.236267 
	C377.422058,559.364380 379.727051,555.149475 382.371765,550.775330 
	C372.468109,543.711243 361.866882,539.522705 350.283508,538.361450 
	C338.961548,537.226562 327.583801,537.127502 317.242432,543.173279 
	C310.273285,547.247620 306.097076,553.189453 306.278809,561.480347 
	C306.454132,569.478882 310.690216,575.451111 317.906189,578.030151 
	C326.433167,581.077698 335.456360,582.740112 344.269958,584.981262 
	C349.880432,586.407959 355.578125,587.559692 361.065063,589.358398 
	C362.516083,589.834106 364.296234,592.319580 364.191132,593.755310 
	C364.063629,595.497131 362.439545,597.961426 360.856873,598.592102 
	C357.529144,599.918030 353.833679,600.681396 350.239777,600.914612 
	C336.883881,601.780823 324.573608,598.133911 312.991852,591.646301 
	C311.268402,590.680847 309.359314,588.609375 307.522888,591.635681 
	C305.042603,595.722900 302.534851,599.793396 300.076447,603.809692 
	C314.050018,614.842407 340.867920,620.992188 357.804016,617.545227 
	C366.369781,615.801880 374.066223,612.751587 379.582947,605.605652 
	C387.284210,595.630005 385.376526,583.190735 374.551514,577.002808 
	C369.452515,574.088074 363.473389,572.712952 357.090240,570.406494 
M683.856628,541.249512 
	C681.203003,542.577454 678.468079,543.765625 675.908691,545.255493 
	C655.421326,557.180969 651.445374,587.571533 667.977051,604.466553 
	C677.098999,613.788940 688.539734,617.522583 701.023010,618.779846 
	C713.412048,620.027710 724.906982,615.908936 736.475403,612.346558 
	C741.751465,610.721863 743.252747,607.398071 742.937683,601.929260 
	C742.249512,589.984131 742.396973,577.993408 742.011658,566.027466 
	C741.615906,553.734802 735.071533,545.440979 724.006714,541.040039 
	C711.009583,535.870483 697.744995,536.818176 683.856628,541.249512 
M388.913086,541.327820 
	C387.719574,542.116943 385.552399,542.840027 385.493683,543.706177 
	C385.160828,548.615601 385.332611,553.559265 385.332611,559.121887 
	C390.228790,559.121887 394.450958,559.121887 398.971039,559.121887 
	C398.971039,570.089172 398.820953,580.408142 399.007812,590.720947 
	C399.259460,604.607361 407.199738,614.264038 420.724854,617.507935 
	C433.311676,620.526794 444.965424,616.406372 457.308472,613.072693 
	C455.626404,607.427124 454.083160,602.247437 452.415619,596.650513 
	C449.458038,597.339111 446.926697,598.070862 444.345032,598.499451 
	C439.105103,599.369446 433.848663,600.619263 428.579498,600.723267 
	C420.355377,600.885681 416.721344,597.018555 416.601624,588.858765 
	C416.474487,580.195190 416.651367,571.527039 416.516541,562.863708 
	C416.470062,559.876587 417.450043,558.743469 420.534027,558.803406 
	C428.863037,558.965332 437.197296,558.857666 445.529449,558.857117 
	C448.793365,558.856873 452.057281,558.857056 455.804871,558.857056 
	C455.804871,554.008179 455.631683,549.862732 455.857605,545.739014 
	C456.051697,542.196472 454.666382,541.150940 451.208649,541.224548 
	C441.547638,541.430359 431.868195,541.034363 422.219269,541.435059 
	C417.385254,541.635864 416.134979,539.885803 416.502106,535.458069 
	C416.826508,531.545715 416.570038,527.585266 416.570038,523.404541 
	C410.395508,523.404541 404.979034,523.404541 398.894592,523.404541 
	C398.894592,529.389771 398.894592,535.114075 398.894592,541.325012 
	C395.428467,541.325012 392.625702,541.325012 388.913086,541.327820 
M230.506790,590.862549 
	C226.966690,585.715698 225.836777,579.962891 225.903366,573.800903 
	C226.018143,563.179321 225.935135,552.555603 225.935135,541.323547 
	C221.141876,541.323547 216.848663,541.478760 212.572861,541.272888 
	C209.337692,541.117126 208.122772,542.270081 208.169769,545.556396 
	C208.315125,555.720703 208.096725,565.890747 208.277115,576.053955 
	C208.470245,586.934998 211.767838,596.666077 219.810410,604.405090 
	C232.863266,616.965332 248.777481,620.492493 265.971313,617.559021 
	C284.150421,614.457458 293.000214,602.916565 293.053192,584.296021 
	C293.088745,571.796448 293.062988,559.296692 293.064575,546.797058 
	C293.064789,545.176086 293.064606,543.555115 293.064606,541.680237 
	C287.121521,541.680237 281.741882,541.680237 275.998901,541.680237 
	C275.998901,543.687012 275.999603,545.333740 275.998779,546.980469 
	C275.992401,559.813416 276.084839,572.647522 275.945099,585.479004 
	C275.848358,594.360840 272.739685,598.852356 264.200989,600.335205 
	C251.963989,602.460266 240.255371,601.090637 230.506790,590.862549 
M755.903748,511.246979 
	C755.250854,512.883362 754.040771,514.516052 754.029907,516.156738 
	C753.897034,536.137573 753.865479,556.120056 753.987244,576.101013 
	C754.020569,581.565308 754.376099,587.060913 755.063416,592.481323 
	C756.673096,605.175659 768.590820,616.297302 780.886414,616.911438 
	C791.856689,617.459351 791.856689,617.459412 791.847839,606.545349 
	C791.842163,599.512573 791.696533,599.365112 784.557861,599.164001 
	C777.670837,598.969910 773.018372,595.442383 772.053650,589.324707 
	C771.486755,585.729187 771.142334,582.060852 771.122498,578.422974 
	C771.026428,560.773010 771.072998,543.122192 771.070984,525.471680 
	C771.069397,511.112976 771.070679,511.112976 755.903748,511.246979 
M501.553436,506.454102 
	C501.959290,506.164978 502.347321,505.845978 502.773621,505.591034 
	C513.872559,498.952972 514.453674,490.969452 512.290588,480.348328 
	C510.577118,471.934845 501.753448,466.812073 491.492035,466.985291 
	C483.156525,467.125977 477.222382,471.262695 473.988068,478.665009 
	C470.542847,486.549988 471.501709,494.273010 477.208435,500.961334 
	C483.631561,508.489227 491.919098,509.000366 501.553436,506.454102 
M430.896729,496.191132 
	C437.650238,483.807037 428.488129,465.991455 411.404663,466.752228 
	C401.451385,467.195496 393.729218,475.461731 392.298340,482.087311 
	C390.147003,492.048889 394.437866,501.664673 402.763275,505.750214 
	C410.778717,509.683655 422.482117,509.642975 430.896729,496.191132 
z"/>
<path fill="#336878" opacity="1.000000" stroke="none" 
	d="
M106.612289,604.680664 
	C109.331863,599.846619 112.067673,595.167114 114.381554,591.209290 
	C124.687050,594.388977 134.523865,597.977905 144.643066,600.374695 
	C153.062439,602.369019 161.611816,600.862732 169.503647,597.253235 
	C181.419556,591.803101 184.817184,581.412048 184.854675,569.329407 
	C184.896042,555.996460 184.863510,542.663208 184.863190,529.330139 
	C184.863144,527.517090 184.863190,525.703979 184.863190,523.514099 
	C190.487045,523.514099 195.743759,523.514099 201.634018,523.514099 
	C201.730255,524.930664 201.928299,526.510193 201.930695,528.089905 
	C201.952515,542.422913 202.000198,556.756226 201.924774,571.088867 
	C201.786148,597.432434 183.648987,616.057434 157.336411,618.194397 
	C139.020508,619.681824 123.004250,613.526489 106.893242,605.596191 
	C106.623764,605.248718 106.638000,605.042786 106.612289,604.680664 
z"/>
<path fill="#326878" opacity="1.000000" stroke="none" 
	d="
M365.997314,254.996735 
	C389.265106,254.506516 388.022308,255.767746 396.674805,273.673035 
	C403.265228,287.311188 409.780518,300.985626 416.342865,314.637360 
	C416.479309,314.921265 416.781616,315.125488 417.506409,315.903320 
	C426.038849,311.726501 434.624634,307.117065 443.538300,303.266632 
	C453.872955,298.802368 464.174927,293.462921 475.052094,291.200958 
	C510.713898,283.784698 547.594971,304.664001 560.952148,338.611725 
	C576.082886,377.067352 560.266357,418.611603 523.276794,437.241974 
	C503.377014,447.264801 483.371552,457.077881 462.783997,467.298279 
	C458.360260,458.492798 454.065186,449.943390 449.578247,441.012054 
	C447.120209,443.618561 445.072754,446.237610 442.593811,448.350403 
	C412.066254,474.368774 360.579376,465.388062 340.279144,430.848633 
	C334.450012,420.930817 338.264435,413.968048 343.436035,410.711731 
	C350.509125,406.258118 360.799316,408.983551 365.164917,416.715515 
	C373.516907,431.507843 386.492340,437.292419 402.773224,435.941620 
	C413.575897,435.045380 422.573425,430.584595 427.337494,419.848358 
	C430.257080,413.268677 428.985199,407.077118 426.111542,401.091370 
	C407.311676,361.931305 388.350861,322.848328 369.633636,283.648926 
	C368.245300,280.741302 366.394684,280.875153 364.098114,280.874634 
	C341.773163,280.869537 319.448151,280.848572 297.123230,280.873474 
	C290.383911,280.880981 284.969757,278.552094 282.241089,272.071930 
	C279.031036,264.448395 285.363831,255.626007 294.529846,255.139359 
	C301.342163,254.777679 308.186646,255.004807 315.016815,255.000488 
	C331.843872,254.989838 348.670929,254.996933 365.997314,254.996735 
M454.933075,326.361908 
	C446.228149,330.703003 437.523193,335.044067 428.535065,339.526398 
	C444.008942,370.887360 459.145386,401.564514 474.504486,432.692871 
	C488.457397,425.748383 502.039825,419.474701 515.156372,412.344086 
	C534.030945,402.083191 544.494568,377.941742 539.712036,357.281250 
	C534.300964,333.905548 515.553467,317.606842 493.042999,315.765808 
	C479.124817,314.627563 467.319000,319.845245 454.933075,326.361908 
z"/>
<path fill="#EA7C66" opacity="1.000000" stroke="none" 
	d="
M547.223511,539.791931 
	C565.217041,556.261475 563.271729,588.526550 546.244873,603.005798 
	C537.152832,610.737427 527.035706,614.944641 515.398560,617.349670 
	C504.941620,619.510803 494.884521,618.991150 484.883514,616.687744 
	C476.094757,614.663513 467.580475,611.411194 459.023346,608.472961 
	C458.143860,608.171021 457.277893,606.305176 457.286041,605.171204 
	C457.409058,588.044128 456.889099,570.858154 458.182983,553.812195 
	C459.102295,541.701050 467.380219,533.555603 478.216949,528.551880 
	C500.381958,518.317505 521.282349,522.472595 541.276489,534.753662 
	C543.365967,536.037048 545.085083,537.923340 547.223511,539.791931 
M508.802704,600.622559 
	C514.473206,598.854858 520.296936,597.463806 525.779358,595.233704 
	C534.595032,591.647644 540.661804,585.191772 542.008057,575.538452 
	C543.681702,563.537231 539.285828,553.866943 528.838379,547.521362 
	C518.197998,541.058594 506.198425,539.244263 494.303619,541.378662 
	C482.014252,543.583862 475.887695,548.108276 475.124451,558.746521 
	C474.315521,570.021545 474.835144,581.399780 475.029266,592.728638 
	C475.053406,594.137207 476.367279,596.419861 477.540741,596.771423 
	C487.429474,599.733948 497.485535,601.867676 508.802704,600.622559 
z"/>
<path fill="#E97C66" opacity="1.000000" stroke="none" 
	d="
M649.663147,576.675659 
	C640.730225,578.677429 632.212158,580.570374 623.680725,582.401123 
	C613.490784,584.587708 603.283142,586.692383 593.100464,588.911926 
	C591.729980,589.210571 590.460449,589.972534 589.144165,590.520020 
	C589.972717,591.791809 590.528931,593.432617 591.672913,594.277039 
	C600.758667,600.983765 611.233704,602.330994 621.891724,600.435913 
	C628.452209,599.269470 634.791931,596.519775 641.018127,593.963013 
	C643.998962,592.738953 645.165527,593.186523 646.150940,596.089539 
	C647.108887,598.911560 648.179382,601.794434 649.783508,604.273376 
	C651.876343,607.507690 650.440491,609.535767 647.797241,610.639038 
	C642.181702,612.982666 636.438477,615.082153 630.618958,616.861084 
	C620.351013,620.000061 609.994385,619.141479 599.648071,616.968445 
	C585.432495,613.982666 574.200928,606.617798 568.880188,592.936829 
	C563.421631,578.901367 565.012085,565.227844 574.940369,553.086548 
	C582.779968,543.499573 593.075317,539.144409 605.096619,538.034119 
	C616.447998,536.985657 627.080261,538.665710 636.828186,545.107056 
	C646.486511,551.489197 653.631042,567.291748 649.663147,576.675659 
M587.807068,566.444641 
	C586.808472,568.695374 585.809875,570.946167 584.296814,574.356506 
	C600.531128,570.861511 615.154175,567.713379 630.281189,564.456726 
	C627.376587,557.499329 621.338867,556.237854 615.951843,555.417725 
	C605.029968,553.754883 595.118652,556.212708 587.807068,566.444641 
z"/>
<path fill="#346878" opacity="1.000000" stroke="none" 
	d="
M357.491638,570.523315 
	C363.473389,572.712952 369.452515,574.088074 374.551514,577.002808 
	C385.376526,583.190735 387.284210,595.630005 379.582947,605.605652 
	C374.066223,612.751587 366.369781,615.801880 357.804016,617.545227 
	C340.867920,620.992188 314.050018,614.842407 300.076447,603.809692 
	C302.534851,599.793396 305.042603,595.722900 307.522888,591.635681 
	C309.359314,588.609375 311.268402,590.680847 312.991852,591.646301 
	C324.573608,598.133911 336.883881,601.780823 350.239777,600.914612 
	C353.833679,600.681396 357.529144,599.918030 360.856873,598.592102 
	C362.439545,597.961426 364.063629,595.497131 364.191132,593.755310 
	C364.296234,592.319580 362.516083,589.834106 361.065063,589.358398 
	C355.578125,587.559692 349.880432,586.407959 344.269958,584.981262 
	C335.456360,582.740112 326.433167,581.077698 317.906189,578.030151 
	C310.690216,575.451111 306.454132,569.478882 306.278809,561.480347 
	C306.097076,553.189453 310.273285,547.247620 317.242432,543.173279 
	C327.583801,537.127502 338.961548,537.226562 350.283508,538.361450 
	C361.866882,539.522705 372.468109,543.711243 382.371765,550.775330 
	C379.727051,555.149475 377.422058,559.364380 374.639832,563.236267 
	C374.057343,564.046936 371.570343,564.066040 370.208862,563.646179 
	C361.546478,560.974426 353.076385,557.556763 344.283905,555.483154 
	C340.141144,554.506226 335.333221,555.557190 331.005890,556.506165 
	C328.994324,556.947327 327.409973,559.336731 325.631989,560.843018 
	C327.325226,562.234253 328.827087,564.417542 330.744537,564.880859 
	C339.462463,566.987488 348.297394,568.609924 357.491638,570.523315 
z"/>
<path fill="#EA7C65" opacity="1.000000" stroke="none" 
	d="
M684.233887,541.146851 
	C697.744995,536.818176 711.009583,535.870483 724.006714,541.040039 
	C735.071533,545.440979 741.615906,553.734802 742.011658,566.027466 
	C742.396973,577.993408 742.249512,589.984131 742.937683,601.929260 
	C743.252747,607.398071 741.751465,610.721863 736.475403,612.346558 
	C724.906982,615.908936 713.412048,620.027710 701.023010,618.779846 
	C688.539734,617.522583 677.098999,613.788940 667.977051,604.466553 
	C651.445374,587.571533 655.421326,557.180969 675.908691,545.255493 
	C678.468079,543.765625 681.203003,542.577454 684.233887,541.146851 
M678.496582,589.848938 
	C681.494080,592.357483 684.163635,595.495605 687.549194,597.259094 
	C698.681091,603.057739 710.331665,602.093018 721.832092,598.380554 
	C723.261169,597.919373 724.806274,595.253296 724.868408,593.556519 
	C725.173157,585.242554 725.019714,576.910645 724.976013,568.585388 
	C724.950928,563.803711 722.589722,560.345825 718.437012,558.232300 
	C708.067932,552.955078 697.657104,554.447144 687.732239,559.160583 
	C675.277893,565.075195 671.781738,576.798462 678.496582,589.848938 
z"/>
<path fill="#346879" opacity="1.000000" stroke="none" 
	d="
M389.368011,541.326416 
	C392.625702,541.325012 395.428467,541.325012 398.894592,541.325012 
	C398.894592,535.114075 398.894592,529.389771 398.894592,523.404541 
	C404.979034,523.404541 410.395508,523.404541 416.570038,523.404541 
	C416.570038,527.585266 416.826508,531.545715 416.502106,535.458069 
	C416.134979,539.885803 417.385254,541.635864 422.219269,541.435059 
	C431.868195,541.034363 441.547638,541.430359 451.208649,541.224548 
	C454.666382,541.150940 456.051697,542.196472 455.857605,545.739014 
	C455.631683,549.862732 455.804871,554.008179 455.804871,558.857056 
	C452.057281,558.857056 448.793365,558.856873 445.529449,558.857117 
	C437.197296,558.857666 428.863037,558.965332 420.534027,558.803406 
	C417.450043,558.743469 416.470062,559.876587 416.516541,562.863708 
	C416.651367,571.527039 416.474487,580.195190 416.601624,588.858765 
	C416.721344,597.018555 420.355377,600.885681 428.579498,600.723267 
	C433.848663,600.619263 439.105103,599.369446 444.345032,598.499451 
	C446.926697,598.070862 449.458038,597.339111 452.415619,596.650513 
	C454.083160,602.247437 455.626404,607.427124 457.308472,613.072693 
	C444.965424,616.406372 433.311676,620.526794 420.724854,617.507935 
	C407.199738,614.264038 399.259460,604.607361 399.007812,590.720947 
	C398.820953,580.408142 398.971039,570.089172 398.971039,559.121887 
	C394.450958,559.121887 390.228790,559.121887 385.332611,559.121887 
	C385.332611,553.559265 385.160828,548.615601 385.493683,543.706177 
	C385.552399,542.840027 387.719574,542.116943 389.368011,541.326416 
z"/>
<path fill="#336878" opacity="1.000000" stroke="none" 
	d="
M230.748505,591.140259 
	C240.255371,601.090637 251.963989,602.460266 264.200989,600.335205 
	C272.739685,598.852356 275.848358,594.360840 275.945099,585.479004 
	C276.084839,572.647522 275.992401,559.813416 275.998779,546.980469 
	C275.999603,545.333740 275.998901,543.687012 275.998901,541.680237 
	C281.741882,541.680237 287.121521,541.680237 293.064606,541.680237 
	C293.064606,543.555115 293.064789,545.176086 293.064575,546.797058 
	C293.062988,559.296692 293.088745,571.796448 293.053192,584.296021 
	C293.000214,602.916565 284.150421,614.457458 265.971313,617.559021 
	C248.777481,620.492493 232.863266,616.965332 219.810410,604.405090 
	C211.767838,596.666077 208.470245,586.934998 208.277115,576.053955 
	C208.096725,565.890747 208.315125,555.720703 208.169769,545.556396 
	C208.122772,542.270081 209.337692,541.117126 212.572861,541.272888 
	C216.848663,541.478760 221.141876,541.323547 225.935135,541.323547 
	C225.935135,552.555603 226.018143,563.179321 225.903366,573.800903 
	C225.836777,579.962891 226.966690,585.715698 230.748505,591.140259 
z"/>
<path fill="#EA7B65" opacity="1.000000" stroke="none" 
	d="
M756.360840,511.230042 
	C771.070679,511.112976 771.069397,511.112976 771.070984,525.471680 
	C771.072998,543.122192 771.026428,560.773010 771.122498,578.422974 
	C771.142334,582.060852 771.486755,585.729187 772.053650,589.324707 
	C773.018372,595.442383 777.670837,598.969910 784.557861,599.164001 
	C791.696533,599.365112 791.842163,599.512573 791.847839,606.545349 
	C791.856689,617.459412 791.856689,617.459351 780.886414,616.911438 
	C768.590820,616.297302 756.673096,605.175659 755.063416,592.481323 
	C754.376099,587.060913 754.020569,581.565308 753.987244,576.101013 
	C753.865479,556.120056 753.897034,536.137573 754.029907,516.156738 
	C754.040771,514.516052 755.250854,512.883362 756.360840,511.230042 
z"/>
<path fill="#E87E6A" opacity="1.000000" stroke="none" 
	d="
M501.183868,506.593994 
	C491.919098,509.000366 483.631561,508.489227 477.208435,500.961334 
	C471.501709,494.273010 470.542847,486.549988 473.988068,478.665009 
	C477.222382,471.262695 483.156525,467.125977 491.492035,466.985291 
	C501.753448,466.812073 510.577118,471.934845 512.290588,480.348328 
	C514.453674,490.969452 513.872559,498.952972 502.773621,505.591034 
	C502.347321,505.845978 501.959290,506.164978 501.183868,506.593994 
M504.025818,481.885132 
	C503.128326,480.705231 502.357880,479.396057 501.311371,478.367767 
	C496.742371,473.878143 489.358368,473.734711 484.587128,477.951447 
	C480.011078,481.995575 479.365509,490.179291 483.245819,494.953735 
	C486.831329,499.365417 493.693085,500.729034 498.997742,498.084015 
	C504.294495,495.442902 506.103119,490.201355 504.025818,481.885132 
z"/>
<path fill="#E77E69" opacity="1.000000" stroke="none" 
	d="
M430.718872,496.528198 
	C422.482117,509.642975 410.778717,509.683655 402.763275,505.750214 
	C394.437866,501.664673 390.147003,492.048889 392.298340,482.087311 
	C393.729218,475.461731 401.451385,467.195496 411.404663,466.752228 
	C428.488129,465.991455 437.650238,483.807037 430.718872,496.528198 
M403.952911,496.571289 
	C410.997009,501.279724 418.848816,500.401367 422.722656,494.471527 
	C426.405609,488.833893 425.499054,482.070221 420.508423,477.951111 
	C415.301331,473.653320 408.089783,473.932739 403.449585,478.524506 
	C399.487610,482.445099 398.248108,491.384979 403.952911,496.571289 
z"/>
<path fill="#CBCBCC" opacity="1.000000" stroke="none" 
	d="
M455.265076,326.190979 
	C467.319000,319.845245 479.124817,314.627563 493.042999,315.765808 
	C515.553467,317.606842 534.300964,333.905548 539.712036,357.281250 
	C544.494568,377.941742 534.030945,402.083191 515.156372,412.344086 
	C502.039825,419.474701 488.457397,425.748383 474.504486,432.692871 
	C459.145386,401.564514 444.008942,370.887360 428.535065,339.526398 
	C437.523193,335.044067 446.228149,330.703003 455.265076,326.190979 
z"/>
<path fill="#CDCBCB" opacity="1.000000" stroke="none" 
	d="
M508.367188,600.723267 
	C497.485535,601.867676 487.429474,599.733948 477.540741,596.771423 
	C476.367279,596.419861 475.053406,594.137207 475.029266,592.728638 
	C474.835144,581.399780 474.315521,570.021545 475.124451,558.746521 
	C475.887695,548.108276 482.014252,543.583862 494.303619,541.378662 
	C506.198425,539.244263 518.197998,541.058594 528.838379,547.521362 
	C539.285828,553.866943 543.681702,563.537231 542.008057,575.538452 
	C540.661804,585.191772 534.595032,591.647644 525.779358,595.233704 
	C520.296936,597.463806 514.473206,598.854858 508.367188,600.723267 
z"/>
<path fill="#D1C8C5" opacity="1.000000" stroke="none" 
	d="
M587.967407,566.114136 
	C595.118652,556.212708 605.029968,553.754883 615.951843,555.417725 
	C621.338867,556.237854 627.376587,557.499329 630.281189,564.456726 
	C615.154175,567.713379 600.531128,570.861511 584.296814,574.356506 
	C585.809875,570.946167 586.808472,568.695374 587.967407,566.114136 
z"/>
<path fill="#CDCBCA" opacity="1.000000" stroke="none" 
	d="
M678.301941,589.524170 
	C671.781738,576.798462 675.277893,565.075195 687.732239,559.160583 
	C697.657104,554.447144 708.067932,552.955078 718.437012,558.232300 
	C722.589722,560.345825 724.950928,563.803711 724.976013,568.585388 
	C725.019714,576.910645 725.173157,585.242554 724.868408,593.556519 
	C724.806274,595.253296 723.261169,597.919373 721.832092,598.380554 
	C710.331665,602.093018 698.681091,603.057739 687.549194,597.259094 
	C684.163635,595.495605 681.494080,592.357483 678.301941,589.524170 
z"/>
<path fill="#CECAC9" opacity="1.000000" stroke="none" 
	d="
M504.180664,482.249939 
	C506.103119,490.201355 504.294495,495.442902 498.997742,498.084015 
	C493.693085,500.729034 486.831329,499.365417 483.245819,494.953735 
	C479.365509,490.179291 480.011078,481.995575 484.587128,477.951447 
	C489.358368,473.734711 496.742371,473.878143 501.311371,478.367767 
	C502.357880,479.396057 503.128326,480.705231 504.180664,482.249939 
z"/>
<path fill="#CFC9C7" opacity="1.000000" stroke="none" 
	d="
M403.691589,496.294922 
	C398.248108,491.384979 399.487610,482.445099 403.449585,478.524506 
	C408.089783,473.932739 415.301331,473.653320 420.508423,477.951111 
	C425.499054,482.070221 426.405609,488.833893 422.722656,494.471527 
	C418.848816,500.401367 410.997009,501.279724 403.691589,496.294922 
z"/>
</svg>