<svg id="Layer_1" data-name="Layer 1" xmlns="http://www.w3.org/2000/svg" viewBox="0 0 231.24 199.72"><defs><style>.cls-1{fill:#326878;}.cls-2{fill:#f2ede9;}.cls-3{fill:#e8806b;}</style></defs><title>justdealfavicon</title><path class="cls-1" d="M269.19,416.88h-6.76l-2.8-.37-2.25-.2-1.13-.23-1.68-.33-1.68-.32-1.12-.23-1.12-.28-6.47-2.12-1.33-.52L236.06,409a.44.44,0,0,0-.5-.09l-6.6-4.51-.69-.53-3-2.72-1.58-1.63-3-3.6-1.43-2.11-.42-.62L217,391c-1.27-2.88-2.88-5.67-2.09-9.06,1.67-7.16,11.26-10.62,18-6.28,1.89,1.22,4,2.77,4.93,4.69,5.56,11.14,19.18,16.27,30.6,14.88,6.39-.78,12.24-2.82,16.47-8,4.57-5.59,5.37-11.88,2.34-18.39-4.64-10-9.48-19.89-14.34-29.78-5.75-11.7-11.61-23.35-17.42-35-4.74-9.5-9.54-19-14.17-28.53-.9-1.85-2-2.29-3.9-2.28-18.51.05-37,0-55.52,0a12.58,12.58,0,0,1-8.37-2.59c-3-2.45-4.41-6.41-3.36-9.74,1.49-4.73,5-7,9.67-7.83a16.21,16.21,0,0,1,2.79-.09h63.94c6.18,0,10.86,2.06,13.48,8.3,3.15,7.48,6.83,14.74,10.47,22,2.93,5.88,6.14,11.62,9.33,17.61,5.58-2.62,11.09-5.32,16.69-7.81,8.08-3.61,16-7.8,24.39-10.44,13.55-4.27,27.14-2.85,40.36,2.3C379.7,292.23,391.46,305.39,398,324a49.9,49.9,0,0,1,2.21,26.62c-2.61,13.17-8.07,25.25-18.11,34.59-7.29,6.79-16.18,11.18-25.22,15.28s-18.16,8.75-27.26,13.1c-4.19,2-8.44,3.9-12.88,6L305.84,399l-2.63,2.93a38.55,38.55,0,0,1-15.86,10.68c-1,.37-2,.92-3,1.38l-.54.15-2.25.61-3.92,1-5,.77Zm19.3-97.33a54.18,54.18,0,0,1,3,4.64q9.09,17.74,18.07,35.56,7.66,15.27,15.09,30.64c.91,1.88,1.74,2.22,3.61,1.29,6.93-3.43,14-6.51,20.89-10.1,6-3.15,12.6-5.87,17.42-10.39,21.3-20,14.44-52.61-7-64.38-11.9-6.55-24.29-8.48-36.88-3.41C311.22,308.05,300.19,314,288.49,319.55Z" transform="translate(-169.82 -253.06)"/><path class="cls-2" d="M277.6,415.74l3.92-1Z" transform="translate(-169.82 -253.06)"/><path class="cls-2" d="M269.19,416.88l3.37-.37Z" transform="translate(-169.82 -253.06)"/><path class="cls-2" d="M259.63,416.52l2.8.37Z" transform="translate(-169.82 -253.06)"/><path class="cls-2" d="M217,391l1.82,2.19Z" transform="translate(-169.82 -253.06)"/><path class="cls-2" d="M219.27,393.84,220.7,396Z" transform="translate(-169.82 -253.06)"/><path class="cls-2" d="M277.61,419.44l-1.73-.09Z" transform="translate(-169.82 -253.06)"/><path class="cls-2" d="M252.89,415.44l1.68.32Z" transform="translate(-169.82 -253.06)"/><path class="cls-2" d="M223.73,399.55l1.58,1.63Z" transform="translate(-169.82 -253.06)"/><path class="cls-2" d="M283.72,449.9l1.7-1.12Z" transform="translate(-169.82 -253.06)"/><path class="cls-2" d="M284.87,421.91l-1.41-1Z" transform="translate(-169.82 -253.06)"/><path class="cls-2" d="M287.65,424.17l-1.21-1.09Z" transform="translate(-169.82 -253.06)"/><path class="cls-2" d="M256.25,416.09l1.13.23Z" transform="translate(-169.82 -253.06)"/><path class="cls-2" d="M250.65,414.93l1.12.28Z" transform="translate(-169.82 -253.06)"/><path class="cls-2" d="M242.85,412.29l1.33.52Z" transform="translate(-169.82 -253.06)"/><path class="cls-2" d="M283.77,414.11l.54-.15Z" transform="translate(-169.82 -253.06)"/><path class="cls-2" d="M235.56,408.94a.44.44,0,0,1,.5.09Z" transform="translate(-169.82 -253.06)"/><path class="cls-2" d="M228.27,403.9l.69.53Z" transform="translate(-169.82 -253.06)"/><path class="cls-3" d="M276.52,419.92A16.43,16.43,0,1,0,293,436.35,16.44,16.44,0,0,0,276.52,419.92Zm0,27.12a10.69,10.69,0,1,1,10.7-10.69A10.69,10.69,0,0,1,276.52,447Z" transform="translate(-169.82 -253.06)"/><path class="cls-3" d="M340.87,418.92a16.43,16.43,0,1,0,16.43,16.43A16.43,16.43,0,0,0,340.87,418.92Zm0,27.12a10.69,10.69,0,1,1,10.69-10.69A10.69,10.69,0,0,1,340.87,446Z" transform="translate(-169.82 -253.06)"/></svg>